<svg width="75" height="94" fill="none" xmlns="http://www.w3.org/2000/svg"><g clip-path="url(#a)"><path fill="#fff" d="M0 0h75v94H0z"/><path d="M24.342 69.825c7.345 7.345 19.28 7.345 26.626 0 7.345-7.345 7.345-19.281 0-26.626L24.342 69.825ZM65.917.047 9.417 0A9.414 9.414 0 0 0 0 9.417V84.75a9.414 9.414 0 0 0 9.417 9.417h56.5a9.414 9.414 0 0 0 9.416-9.417V9.417c0-5.203-4.214-9.37-9.416-9.37ZM28.25 9.417a4.722 4.722 0 0 1 4.708 4.708 4.722 4.722 0 0 1-4.708 4.708 4.722 4.722 0 0 1-4.708-4.708 4.722 4.722 0 0 1 4.708-4.708Zm-14.125 0a4.722 4.722 0 0 1 4.708 4.708 4.722 4.722 0 0 1-4.708 4.708 4.722 4.722 0 0 1-4.708-4.708 4.722 4.722 0 0 1 4.708-4.708ZM37.667 84.75c-15.609 0-28.25-12.642-28.25-28.25s12.641-28.25 28.25-28.25c15.608 0 28.25 12.642 28.25 28.25s-12.642 28.25-28.25 28.25Z" fill="#A42525"/></g><defs><clipPath id="a"><path fill="#fff" d="M0 0h75v94H0z"/></clipPath></defs></svg>