<svg width="119" height="86" fill="none" xmlns="http://www.w3.org/2000/svg"><g clip-path="url(#a)"><path d="M102.773 21.226H86.546V-.363H10.818C4.841-.363 0 4.467 0 10.431V69.8h10.818c0 8.932 7.275 16.191 16.227 16.191 8.953 0 16.228-7.259 16.228-16.191h32.454c0 8.932 7.275 16.191 16.227 16.191 8.953 0 16.228-7.259 16.228-16.191H119V42.814l-16.227-21.588Zm-75.727 56.67c-4.49 0-8.114-3.617-8.114-8.096 0-4.48 3.624-8.096 8.114-8.096 4.489 0 8.113 3.616 8.113 8.096s-3.624 8.096-8.113 8.096Zm73.022-48.575 10.629 13.493H86.546V29.321h13.522Zm-8.114 48.575c-4.489 0-8.113-3.617-8.113-8.096 0-4.48 3.624-8.096 8.114-8.096s8.113 3.616 8.113 8.096-3.624 8.096-8.114 8.096Z" fill="#A42525"/></g><defs><clipPath id="a"><path fill="#fff" d="M0 0h119v86H0z"/></clipPath></defs></svg>