<svg width="61" height="75" fill="none" xmlns="http://www.w3.org/2000/svg"><path d="M19.474 54.968c5.876 5.782 15.424 5.782 21.3 0a14.665 14.665 0 0 0 0-20.96l-21.3 20.96ZM52.734.038 7.533 0C3.37 0 0 3.317 0 7.413v59.305c0 4.096 3.371 7.413 7.533 7.413h45.2c4.163 0 7.534-3.317 7.534-7.413V7.413c0-4.096-3.372-7.376-7.534-7.376ZM22.6 7.412c2.072 0 3.767 1.668 3.767 3.707 0 2.038-1.695 3.706-3.767 3.706s-3.767-1.668-3.767-3.706c0-2.039 1.695-3.707 3.767-3.707Zm-11.3 0c2.072 0 3.767 1.668 3.767 3.707 0 2.038-1.695 3.706-3.767 3.706s-3.767-1.668-3.767-3.706c0-2.039 1.695-3.707 3.767-3.707Zm18.833 59.305c-12.486 0-22.6-9.952-22.6-22.24 0-12.287 10.114-22.239 22.6-22.239 12.487 0 22.6 9.952 22.6 22.24 0 12.287-10.113 22.24-22.6 22.24Z" fill="#000"/></svg>