<svg width="94" height="68" fill="none" xmlns="http://www.w3.org/2000/svg"><g clip-path="url(#a)"><path d="M81.182 16.783H68.364V-.287H8.545C3.825-.287 0 3.533 0 8.248v46.943h8.545c0 7.062 5.747 12.802 12.819 12.802 7.071 0 12.818-5.74 12.818-12.802h25.636c0 7.062 5.747 12.802 12.818 12.802 7.072 0 12.819-5.74 12.819-12.802H94V33.852l-12.818-17.07ZM21.364 61.592a6.397 6.397 0 0 1-6.41-6.401 6.397 6.397 0 0 1 6.41-6.402c3.546 0 6.409 2.86 6.409 6.401a6.397 6.397 0 0 1-6.41 6.402Zm57.681-38.408 8.396 10.67H68.364v-10.67h10.681Zm-6.409 38.408a6.397 6.397 0 0 1-6.409-6.401 6.397 6.397 0 0 1 6.41-6.402c3.546 0 6.409 2.86 6.409 6.401a6.397 6.397 0 0 1-6.41 6.402Z" fill="#000"/></g><defs><clipPath id="a"><path fill="#fff" d="M0 0h94v68H0z"/></clipPath></defs></svg>